<svg preserveAspectRatio="none" width="100%" height="100%" overflow="visible" style="display: block;" viewBox="0 0 59 57.988" fill="none" xmlns="http://www.w3.org/2000/svg">
<g id="brush">
<rect width="59" height="57.988" rx="28.994" fill="var(--fill-0, #C5D7A8)"/>
<path id="brush_2" d="M24 37.988C23.25 37.988 22.5083 37.8047 21.775 37.438C21.0417 37.0713 20.45 36.588 20 35.988C20.4333 35.988 20.875 35.8172 21.325 35.4755C21.775 35.1338 22 34.638 22 33.988C22 33.1547 22.2917 32.4463 22.875 31.863C23.4583 31.2797 24.1667 30.988 25 30.988C25.8333 30.988 26.5417 31.2797 27.125 31.863C27.7083 32.4463 28 33.1547 28 33.988C28 35.088 27.6083 36.0297 26.825 36.813C26.0417 37.5963 25.1 37.988 24 37.988ZM24 35.988C24.55 35.988 25.0208 35.7922 25.4125 35.4005C25.8042 35.0088 26 34.538 26 33.988C26 33.7047 25.9042 33.4672 25.7125 33.2755C25.5208 33.0838 25.2833 32.988 25 32.988C24.7167 32.988 24.4792 33.0838 24.2875 33.2755C24.0958 33.4672 24 33.7047 24 33.988C24 34.3713 23.9542 34.7213 23.8625 35.038C23.7708 35.3547 23.65 35.6547 23.5 35.938C23.5833 35.9713 23.6667 35.988 23.75 35.988H24ZM29.75 31.988L27 29.238L35.95 20.288C36.1333 20.1047 36.3625 20.0088 36.6375 20.0005C36.9125 19.9922 37.15 20.088 37.35 20.288L38.7 21.638C38.9 21.838 39 22.0713 39 22.338C39 22.6047 38.9 22.838 38.7 23.038L29.75 31.988Z" fill="var(--fill-0, #90B165)"/>
</g>
</svg>
