<svg preserveAspectRatio="none" width="100%" height="100%" overflow="visible" style="display: block;" viewBox="0 0 326.687 326.687" fill="none" xmlns="http://www.w3.org/2000/svg">
<g id="Group 1">
<g id="Mug">
<g id="Rectangle 6" filter="url(#filter0_g_0_40)">
<rect x="288.039" y="14.4127" width="47.0813" height="48.2818" rx="20.1777" transform="rotate(42.2362 288.039 14.4127)" fill="var(--fill-0, #EEEEEE)"/>
</g>
<g id="Ellipse 2" filter="url(#filter1_g_0_40)">
<circle cx="163.343" cy="163.343" r="159.5" fill="var(--fill-0, #EEEEEE)"/>
</g>
<path id="Vector 15" d="M77.4719 38.7426C79.5189 38.6097 78.22 34.0588 80.4074 33.4066C82.5896 32.7621 84.1482 34.6097 85.9557 32.8285C87.7679 31.0467 90.7423 31.1326 91.1628 29.7171C91.5831 28.3016 93.2417 30.7765 94.2325 29.3963C94.9206 28.437 95.6325 28.0629 96.5501 27.9755C96.6669 27.8703 97.1105 27.7277 97.2465 27.649C97.6697 27.6861 98.1137 27.7902 98.6056 27.9361C99.8803 28.3117 102.774 28.103 104.36 27.1508C104.784 26.8968 105.112 26.5912 105.298 26.2426C106.13 24.6182 108.531 25.7585 109.697 25.7684C110.056 25.7719 110.377 25.8559 110.644 25.9736C110.758 26.0233 110.872 26.1829 110.95 26.3563C110.95 26.3564 110.95 26.3565 110.95 26.3566C111.047 26.5724 111.088 26.8093 111.004 26.8799C110.592 27.224 110.056 27.8912 109.582 29.0535C108.684 31.1883 107.807 29.7664 105.914 31.2876C105.885 31.3098 105.857 31.3327 105.828 31.3563C103.857 32.9571 102.966 34.937 100.159 34.7595C100 34.749 99.8527 34.7543 99.7198 34.7719L100.445 34.4319C98.2319 35.2529 99.5726 38.8965 95.2962 38.7468C90.7443 38.6092 92.8646 42.7688 90.0437 45.3001C87.2274 47.8287 81.8887 48.2898 80.1715 49.7385C78.4738 51.1716 76.27 53.3536 73.796 54.6201C73.3549 54.8463 72.9674 55.1445 72.7854 55.3384C70.8514 57.3626 69.3273 60.2753 66.7121 61.8055C63.5096 63.6726 59.1355 66.518 56.9132 67.6745C54.6943 68.824 54.1528 69.1326 53.1565 71.2085C52.59 72.4089 51.2355 73.5407 49.4639 74.0119C49.0245 74.1267 48.6768 74.0795 48.3637 73.9521C48.053 73.7882 47.9746 73.2656 48.0362 72.8325C48.2572 71.4972 49.1635 71.0204 48.7096 69.9065C47.8263 67.6679 47.5401 66.7526 49.4293 66.4005C51.3117 66.061 49.6616 63.7316 50.4647 63.2878C51.2736 62.8459 52.4832 63.9171 54.4193 59.825C56.3715 55.732 57.7649 53.7492 58.6628 52.3261C59.5405 50.9371 62.7835 49.4199 64.3466 47.2192C64.4121 47.1355 64.4766 47.0525 64.5402 46.9698C66.9244 43.9171 71.5862 41.347 73.0008 39.3337C74.385 37.3704 75.415 38.8874 77.4719 38.7426Z" fill="var(--stroke-0, white)"/>
<path id="Vector 16" d="M35.87 101.419C34.7132 101.608 38.7816 103.631 37.9108 104.11C37.0419 104.577 34.7805 103.779 34.9637 104.749C35.1393 105.733 33.301 105.835 34.0476 106.573C34.7906 107.32 32.0663 106.119 32.45 106.861C32.8283 107.611 32.3361 107.736 31.2695 107.711C30.2031 107.694 28.8619 108.491 29.6685 109.49C30.4748 110.499 28.3884 110.001 27.8031 110.037C27.6193 110.052 27.3978 110.018 27.1788 109.964C27.0859 109.94 26.9133 109.854 26.7488 109.759C26.7487 109.759 26.7486 109.759 26.7485 109.759C26.5438 109.64 26.3518 109.508 26.3426 109.464C26.2979 109.251 26.085 108.853 25.4736 108.19C24.3255 106.964 25.9011 107.771 25.5057 106.768C25.1053 105.767 23.8158 104.681 25.1162 104.445C26.4265 104.175 22.4701 102.149 25.211 102.195C27.9705 102.177 23.7452 100.224 23.5593 99.0303C23.3716 97.8377 26.2468 97.4313 26.2717 96.7058C26.2913 96.0691 26.1115 95.1756 26.7204 94.4421C26.7912 94.356 26.8719 94.2738 26.9641 94.1962C27.8613 93.428 26.7614 91.7929 28.1173 91.1049C29.3743 90.4611 30.9371 89.5525 31.9841 89.0669L31.9567 89.2015C32.0437 89.1491 32.1273 89.1018 32.2073 89.0597C33.2455 88.5042 33.4821 88.3595 33.0412 87.5704C32.7901 87.1166 33.1731 86.6204 34.4632 86.3054C34.6275 86.2651 34.806 86.2401 34.9863 86.2555C35.0703 86.2671 35.1819 86.2839 35.203 86.375C35.2161 86.4632 35.1177 86.5629 35.2702 86.6213C35.6294 86.6333 35.7486 86.57 35.9011 86.615C36.043 86.6446 36.1607 86.6968 36.2501 86.7588C36.7708 87.1419 36.3365 87.3759 37.3403 87.7233C39.3469 88.4244 40.1142 88.7108 38.8342 88.9639C37.5549 89.2126 40.2481 89.9013 39.887 90.1157C39.6877 90.2331 39.1082 90.1983 38.7968 90.41C38.8132 90.4514 38.7383 90.5855 38.7525 90.6277C38.4842 90.8145 38.3822 91.1799 38.7524 91.9764C39.571 93.7586 39.6356 94.6001 39.7669 95.2054C39.8948 95.815 38.2076 96.4371 38.4319 97.4005C38.4912 97.6643 38.4652 97.9588 38.4032 98.2766C38.2388 99.1313 37.8077 100.143 38.2093 100.85C38.7584 101.82 37.0288 101.221 35.87 101.419Z" fill="var(--stroke-0, white)"/>
</g>
<g id="Coffee" filter="url(#filter2_g_0_40)">
<circle cx="163.343" cy="163.343" r="135.479" fill="url(#paint0_radial_0_40)"/>
</g>
<g id="Drawing">
<path id="Vector 8" d="M119.529 103.094C120.426 105.203 124.708 103.019 126.089 105.298C127.414 107.55 125.914 109.453 128.193 111.12C130.47 112.801 131.041 115.936 132.574 116.183C134.108 116.433 131.959 118.501 133.576 119.33C135.192 120.154 135.565 121.155 135.837 122.866C135.94 123.525 136.382 124.517 137.004 125.416L136.801 125.247C138.123 126.631 139.766 128.006 141.044 128.169C142.101 128.297 142.666 129.124 142.986 130.048L142.95 130.013C143.213 130.851 143.349 131.809 143.616 132.36C143.783 132.705 143.861 133.044 143.883 133.349C143.893 133.477 143.8 133.651 143.677 133.796C143.677 133.796 143.677 133.796 143.677 133.796C143.524 133.977 143.324 134.112 143.215 134.059C142.687 133.799 141.798 133.552 140.446 133.476C140.186 133.462 139.963 133.43 139.77 133.385C139.764 133.377 139.74 133.359 139.735 133.351C138.187 133.069 138.834 131.804 136.698 130.98C135.469 130.523 134.303 130.447 133.246 130.144C133.173 130.068 132.906 129.894 132.843 129.809C131.745 129.252 130.834 128.474 130.205 127.033C128.941 124.072 125.168 126.486 124.296 121.697C123.425 116.929 119.662 119.674 116.516 117.266C113.406 114.873 111.609 109.887 109.792 109.012C109.226 108.721 108.598 108.47 108.038 108.3C108.19 108.427 108.159 108.461 108.251 108.505C108.344 108.528 108.558 108.619 109.301 108.3C110.407 107.758 110.458 107.45 110.466 107.416C110.446 107.368 110.27 107.496 110.064 107.68C108.308 109.403 108.133 114.323 105.797 117.51C105.349 118.131 104.87 118.808 104.375 119.515C102.403 122.08 100.568 125.666 99.5015 127.526C98.1857 129.826 97.896 130.455 98.2129 132.913C98.4031 134.33 97.9643 136.173 96.7424 137.774C96.1331 138.581 95.2911 138.425 94.9034 137.542C94.344 136.266 94.8016 135.258 93.7998 134.54C91.8039 133.099 91.0546 132.395 92.4504 130.869C93.853 129.36 91.2252 128.212 91.6946 127.261C92.2025 126.311 93.6523 126.659 93.5637 121.452C93.5657 119.178 93.7696 117.307 94.0468 115.76C94.325 113.963 94.5991 112.697 94.7994 111.663C95.1717 109.824 97.7552 106.809 98.8078 103.502C99.0347 102.818 99.3651 102.022 99.9644 101.002C100.712 100.015 100.923 98.6819 104.358 96.8634C108.313 95.3655 110.763 96.0543 113.41 97.0679C114.815 97.6547 115.893 98.1828 116.733 98.4526C119.668 99.4491 118.544 100.961 119.529 103.094Z" fill="var(--stroke-0, white)"/>
<path id="Vector 9" d="M208.656 224.331C199.654 227.61 192.098 233.989 182.278 236.366C180.403 236.905 179.19 237.311 178.171 237.712C169.794 241.554 166.097 240.759 154.877 242.033C149.235 242.451 143.645 241.979 138.39 240.675C128.784 237.816 125.091 231.627 122.006 229.683C119.78 228.021 119.041 226.699 118.275 225.357C117.006 223.419 115.765 221.301 112.418 217.912C106.344 211.552 103.868 206.74 101.102 199.722C100.274 197.553 98.7939 194.104 97.306 190.006C97.2794 189.949 97.2239 189.769 97.2059 189.708C95.2475 180.254 92.6306 167.97 90.5258 162.655C89.124 159.087 88.3406 155.134 87.8064 151.339C87.7974 151.307 87.7797 151.208 87.7729 151.175C87.4416 146.636 87.8448 142.478 87.8973 139.455C87.9309 137.695 88.0603 136.309 88.2146 135.244C88.2803 134.793 88.4605 134.576 88.6501 134.565C88.6503 134.565 88.6504 134.565 88.6505 134.565C88.8867 134.551 89.1375 134.857 89.2011 135.428C89.5189 138.19 90.1033 142.356 91.5502 147.041C91.9433 148.304 92.2696 149.392 92.5444 150.373L92.5108 150.209C94.5758 156.083 93.9427 158.551 97.0238 168.711C99.2804 176.161 101.431 181.58 103.414 188.111L103.221 187.536C104.871 191.002 106.742 194.883 109.019 199.615C113.807 209.066 118.385 211.517 125.124 217.765C128.164 220.46 130.493 223.666 133.524 227.103C135.945 229.843 138.286 231.282 140.359 231.748C150.584 233.387 157.107 231.085 168.37 226.517C168.935 226.212 169.444 225.895 169.867 225.587C185.535 217.213 196.533 218.183 206.907 212.72C212.966 210.026 217.847 207.036 220.758 204.426C223.955 201.62 227.21 197.694 227.888 194.224C228.417 187.234 228.957 175.366 230.68 165.046C231.284 161.237 231.883 157.221 232.542 153.07C232.983 150.321 233.563 147.471 234.529 144.527C235.382 141.694 237.285 138.203 237.621 137.11C237.464 137.345 237.346 138.685 237.474 139.025C237.561 139.412 237.522 139.224 237.394 138.982C237.133 138.453 236.67 137.617 236.221 136.811C231.803 128.958 228.811 120.279 226.606 112.696C225.492 108.986 224.181 104.963 222.427 102.804C221.51 101.725 220.591 100.738 219.781 100.057C219.382 99.7184 219.015 99.4684 218.803 99.342C218.582 99.2093 218.596 99.2188 218.777 99.1525C218.853 99.1048 218.979 99.0348 219.138 98.8627C219.297 98.6974 219.401 98.431 219.379 98.3559C218.121 101.887 217.096 108.925 212.407 113.036C207.139 117.797 202.124 122.201 198.03 124.624C189.158 129.745 184.509 130.09 177.54 130.632C175.422 130.723 173.048 130.86 170.165 131.045C163.185 131.494 153.534 131.317 145.397 130.156C141.297 129.566 142.229 128.729 146.342 128.309C152.352 127.689 157.295 128.019 160.382 126.93C166.555 124.749 169.154 123.905 176.991 124.971C177.137 124.99 177.282 125.009 177.425 125.026C184.415 125.788 186.658 121.852 190.01 120.51C193.207 118.74 194.505 121.057 206.793 107.417C207.409 106.712 207.942 105.818 208.377 104.622C209.324 102.105 209.326 99.4825 210.331 95.4168C211.156 92.1953 214.577 89.6161 217.474 89.3102C221.818 88.8156 224.257 90.6177 226.031 91.7241C227.813 92.9544 229.104 94.1651 230.262 95.2739C238.552 105.387 238.564 111.51 240.978 116.227C242.463 119.864 244.31 125.282 247.104 130.955C247.526 131.817 247.954 132.65 248.476 133.836C248.732 134.454 249.055 135.134 249.342 136.434C249.683 137.676 249.504 140.029 248.998 141.166C247.371 144.959 246.409 146.107 245.657 148.321C244.906 150.385 244.393 152.658 244.06 154.958C243.908 155.995 243.777 156.995 243.66 157.998C242.371 167.607 241.345 181.768 240.03 197.039C237.591 206.317 232.055 210.79 229.019 213.989C220.635 221.592 218.362 220.872 212.251 223.099C211.187 223.453 210.012 223.855 208.656 224.331Z" fill="var(--stroke-0, white)"/>
<path id="Vector 10" d="M161.769 173.932C162.971 174.804 163.129 170.204 164.585 170.619C166.074 171.029 166.654 173.357 168.228 172.584C168.999 172.211 169.862 172.352 170.613 172.487C170.686 172.456 170.931 172.484 171.007 172.459C171.661 172.67 172.217 172.83 172.51 172.302C173.053 171.276 173.366 174.244 174.211 173.489C175.029 172.728 175.55 173.04 176.496 173.839C177.388 174.709 180.214 174.637 180.042 173.206C180.028 173.093 180.024 173.001 180.026 172.928C180.055 172.89 180.191 172.832 180.223 172.797C181.019 171.602 182.863 172.814 183.554 173.052C183.809 173.126 184.033 173.272 184.222 173.437C184.303 173.508 184.387 173.682 184.447 173.863C184.447 173.863 184.447 173.863 184.447 173.863C184.522 174.087 184.558 174.32 184.502 174.371C184.236 174.613 183.858 175.139 183.702 176.127C183.545 177.329 183.257 177.032 182.815 177.095L182.995 176.975C182.614 177.146 182.221 177.378 181.755 177.93C180.428 179.483 179.61 181.404 177.368 180.763C175.282 180.037 175.233 184.535 172.263 182.184C171.883 181.865 171.56 181.667 171.27 181.568L171.605 181.545C169.927 181.04 169.983 184.631 168.047 185.474C165.797 186.464 162.009 184.468 160.192 184.757C158.445 184.986 155.357 185.982 151.445 183.283C150.55 182.608 149.582 181.837 148.725 180.931C147.728 179.837 146.953 178.687 146.471 176.96C145.977 175.315 146.103 172.586 147.538 170.575C148.893 168.746 149.847 168.393 150.611 167.998C151.363 167.665 151.988 167.534 152.57 167.504C156.155 167.416 159.557 168.466 161.28 169.18C162.953 169.929 163.316 170.108 164.783 169.437C165.622 169.055 166.866 169.303 167.88 170.493C168.383 171.093 168.263 171.931 167.783 172.337C167.093 172.932 166.499 172.566 166.187 173.629C165.57 175.758 165.36 176.575 164.383 175.425C163.388 174.281 163.224 177.083 162.695 176.817C162.176 176.563 161.925 174.897 159.58 176.532C157.332 178.168 156.358 178.939 156.597 179.175C156.641 179.203 156.701 179.185 156.874 179.041C157.034 178.887 157.356 178.664 157.908 177.796C158.565 176.724 158.565 175.13 158.254 174.471C157.958 173.747 157.704 173.563 157.431 173.174C157.42 173.14 157.419 173.091 157.426 173.022C157.447 172.866 157.359 172.733 157.345 172.685C157.327 172.632 157.414 172.656 157.636 172.666C158.071 172.694 158.962 172.596 159.444 172.143C160.422 171.233 160.612 173.045 161.769 173.932Z" fill="var(--stroke-0, white)"/>
<path id="Vector 11" d="M171.004 183.599C170.614 186.329 175.468 187.109 175.663 190.121C175.885 193.121 173.72 194.325 175.37 197.299C176.854 199.993 177.18 203.363 177.995 203.065C177.983 203.001 177.977 202.936 177.976 202.868C177.792 201.553 176.967 204.738 178.812 204.196C180.61 203.602 181.916 203.847 183.939 204.617C184.384 204.782 185.023 204.917 185.78 205.008L185.485 205.061C187.423 205.222 190.183 203.95 191.127 202.322C191.32 202.013 191.452 201.704 191.514 201.413C191.925 199.249 194.968 198.462 196.276 197.483C196.676 197.184 197.064 197 197.408 196.893C197.554 196.848 197.743 196.914 197.897 197.025C197.898 197.025 197.898 197.025 197.898 197.025C198.09 197.163 198.228 197.37 198.161 197.513C197.836 198.214 197.505 199.352 197.394 200.96C197.147 203.664 195.91 203.336 194.168 205.517C193.952 205.772 193.721 206.061 193.463 206.392C191.681 208.66 190.007 210.721 187.088 211.575C186.98 211.587 186.665 211.673 186.556 211.671C185.706 211.807 184.752 211.827 183.608 211.65C181.685 211.347 180.483 212.061 178.896 212.642C178.092 212.922 177.196 213.183 175.94 213.1C174.729 212.973 172.844 212.671 170.833 210.435C170.298 209.741 169.9 208.956 169.659 208.179C168.285 200.972 164.409 202.534 161.789 196.834C159.405 191.273 160.291 183.604 159.362 180.356C159.28 180.082 159.172 179.701 159.086 179.431C159.032 179.25 158.984 179.095 158.943 178.976C158.917 178.894 158.893 178.822 158.878 178.788C158.87 178.772 158.863 178.756 158.863 178.771C158.872 178.806 158.861 178.829 158.996 179.213C159.015 179.265 159.038 179.325 159.069 179.401C159.094 179.458 159.191 179.705 159.39 180.055C159.667 180.42 159.718 181.004 161.478 182.208C162.338 182.771 164.265 183.441 166.229 182.86C168.183 182.297 169.207 181.026 169.666 180.306C170.548 178.785 170.449 178.308 170.547 177.912C170.633 177.216 170.595 177.017 170.603 177.061C170.603 177.04 170.603 177.02 170.602 177.002C170.602 176.965 170.602 176.934 170.601 176.906C170.598 176.795 170.595 176.739 170.594 176.7C170.591 176.625 170.595 176.634 170.6 176.651C170.61 176.675 170.623 176.73 170.64 176.806C170.68 177.005 170.707 177.094 170.747 177.288C170.833 177.702 170.897 177.957 170.988 178.411C171.503 180.603 172.117 183.897 171.964 187.145C171.517 192.209 173.943 199.956 167.162 206.702C166.986 206.854 166.805 207.003 166.617 207.15C166.188 207.419 165.614 207.882 164.677 208.472C163.769 209.022 162.226 209.922 160.034 209.906C153.849 208.982 150.18 206.088 147.626 204.222C147.392 204.029 147.179 203.849 146.979 203.681C144.345 201.516 143.57 201.006 140.359 200.613C138.502 200.411 136.221 199.534 134.236 198.154C133.239 197.501 133.387 196.641 134.667 196.343C136.485 195.948 137.767 196.641 138.863 195.814C141.073 194.188 142.165 193.644 143.973 195.515C145.723 197.392 147.697 195.215 148.858 196.046C149.475 196.502 149.553 197.156 150.592 197.942C151.277 198.5 152.599 199.166 155.115 199.366C157.228 199.521 159.109 199.411 159.604 199.114C158.958 199.089 158.425 199.238 158.141 199.331C157.848 199.43 157.742 199.474 157.711 199.448C157.662 199.396 157.872 199.111 158.182 198.712C158.274 198.437 158.361 198.142 158.427 197.821C158.656 197.144 160.888 193.632 160.203 190.107C159.829 187.782 159.48 184.023 158.66 180.23C158.566 179.719 158.5 179.423 158.402 178.929C158.381 178.824 158.36 178.726 158.34 178.635C158.316 178.514 158.29 178.374 158.267 178.257C158.255 178.196 158.244 178.137 158.233 178.077C158.22 178.004 158.198 177.855 158.181 177.688C158.172 177.599 158.162 177.497 158.154 177.336C158.152 177.295 158.151 177.251 158.149 177.2C158.149 177.187 158.149 177.174 158.149 177.16C158.148 177.14 158.148 177.19 158.148 177.1C158.148 177.027 158.149 176.943 158.154 176.837C158.166 176.619 158.168 176.355 158.288 175.756C158.357 175.448 158.443 175.051 158.731 174.407C159.038 173.788 159.508 172.755 161.055 171.693C162.562 170.568 165.367 170.373 166.82 171.023C168.341 171.613 168.949 172.303 169.372 172.736C170.149 173.63 170.258 173.992 170.418 174.282C170.485 174.421 170.534 174.533 170.569 174.618C170.574 174.629 170.578 174.64 170.583 174.651C170.592 174.672 170.6 174.692 170.608 174.711C170.639 174.789 170.664 174.853 170.685 174.91C170.84 175.335 170.865 175.447 170.912 175.598C171.257 176.669 171.441 177.1 171.695 177.605C173.201 180.51 171.411 180.891 171.004 183.599Z" fill="var(--stroke-0, white)"/>
<path id="Vector 12" d="M206.32 162.616C205.298 162.619 209.816 162.621 209.177 162.624C208.538 162.627 206.142 162.628 206.681 162.631C207.22 162.635 205.581 162.638 206.566 162.64C207.551 162.642 204.573 162.642 205.234 162.644C205.895 162.646 205.507 162.648 204.539 162.65C203.571 162.652 202.745 162.658 203.934 162.66C205.123 162.662 203.06 162.665 202.57 162.666C202.418 162.667 202.209 162.667 201.992 162.668C201.9 162.668 201.708 162.668 201.518 162.668C201.518 162.668 201.517 162.668 201.517 162.668C201.281 162.668 201.048 162.668 201.018 162.668C200.873 162.667 200.49 162.666 199.632 162.664C198.033 162.662 199.8 162.662 198.978 162.658C198.156 162.655 196.513 162.653 197.576 162.649C198.638 162.645 194.191 162.644 196.711 162.638C199.231 162.633 194.58 162.632 193.962 162.626C193.344 162.621 195.91 162.614 195.697 162.61C195.484 162.607 194.942 162.602 195.556 162.598C196.17 162.593 194.621 162.587 195.716 162.582C196.811 162.576 198.194 162.569 199.121 162.565C200.048 162.562 200.257 162.561 199.69 162.558C199.365 162.556 199.672 162.553 200.869 162.551C201.472 162.55 202.31 162.55 202.712 162.551C203.299 162.553 202.907 162.554 203.955 162.555C206.051 162.557 206.854 162.558 205.635 162.56C204.415 162.562 207.187 162.563 206.868 162.564C206.549 162.565 204.914 162.565 206.173 162.572C207.433 162.578 207.754 162.582 208.057 162.584C208.359 162.586 206.94 162.591 207.452 162.595C207.964 162.599 207.495 162.607 208.333 162.61C209.172 162.614 207.342 162.614 206.32 162.616Z" fill="var(--stroke-0, white)"/>
<path id="Vector 13" d="M209.675 161.811C210.079 161.746 209.659 161.559 209.022 161.388C208.006 161.221 206.443 161.393 206.871 161.585C207.22 161.721 207.999 161.661 208.608 161.542C209.231 161.441 209.642 161.256 209.568 161.615C209.563 161.654 209.563 161.691 209.569 161.725C209.651 162.064 210.02 161.974 210.182 161.833C210.359 161.7 210.382 161.573 210.271 162.028C210.167 162.494 210.33 162.073 210.433 161.566C210.547 161.062 210.588 160.476 210.529 160.674C210.526 160.688 210.523 160.707 210.52 160.729C210.459 161.399 210.651 160.969 210.221 160.08C210.017 159.62 209.573 159.296 209.231 159.365C208.925 159.409 208.786 159.771 209.19 160.216C210.062 161.047 208.008 160.594 207.393 160.814C207.207 160.867 206.979 160.88 206.75 160.872C206.652 160.869 206.467 160.815 206.289 160.748C206.289 160.748 206.289 160.748 206.289 160.748C206.068 160.664 205.859 160.559 205.846 160.509C205.785 160.263 205.533 159.85 204.917 159.126C204.347 158.443 204.508 158.219 204.766 158.038C205.038 157.844 205.364 157.712 205.465 156.913C205.543 156.372 205.609 155.777 205.776 155.213C206.069 154.123 206.887 153.037 208.487 153.334C209.673 153.613 210.142 152.638 211.127 152.011C211.934 151.46 213.207 151.268 214.162 152.979C215.124 154.992 215.994 154.731 217.718 154.978C218.988 155.138 220.641 155.695 221.462 157.342C222.228 158.891 222.057 160.568 221.594 161.804C220.966 163.154 219.967 164.802 219.246 166.452C218.838 167.722 216.735 170.352 213.963 170.803C212.576 171.124 211.529 171.063 210.624 170.69C208.928 169.951 206.854 171.105 205.542 169.661C204.257 168.227 202.666 166.294 202.067 165.113C201.462 163.932 201.34 163.668 200.288 163.882C199.684 164.003 199.097 163.441 199.017 162.094C198.989 161.421 199.412 160.692 199.827 160.438C200.429 160.062 200.596 160.551 201.177 159.654C202.333 157.857 202.744 157.153 202.807 158.475C202.887 159.801 204.036 157.265 204.209 157.661C204.38 158.051 203.881 159.626 205.728 158.874C207.55 158.103 208.369 157.96 208.954 157.787C209.515 157.609 210.336 159.221 211.106 158.789C211.322 158.661 211.579 158.617 211.761 158.583C211.936 158.554 212.066 158.515 211.841 158.502C211.029 158.586 209.952 159.069 209.308 159.582C208.641 160.093 208.302 160.485 208.004 160.681C207.3 161.177 207.555 161.381 207.994 161.57C208.446 161.745 209.152 161.884 209.675 161.811Z" fill="var(--stroke-0, white)"/>
<path id="Vector 14" d="M121.788 164.341C121.396 164.453 121.862 164.353 122.488 164.1C123.4 163.629 124.57 162.657 124.107 162.665C123.346 162.712 121.641 164.437 122.028 164.054C122.149 163.896 122.066 163.955 121.975 164.079C121.791 164.277 121.66 164.685 121.836 164.087C121.964 163.61 121.778 164.075 121.642 164.597C121.495 165.116 121.415 165.691 121.485 165.367C121.587 164.708 121.371 165.101 121.559 166.059C121.577 166.148 121.597 166.235 121.622 166.318C121.725 166.725 121.947 167.038 122.145 167.057C122.338 167.081 122.447 166.829 122.154 166.365C121.46 165.394 123.183 166.553 123.762 166.606C123.933 166.635 124.139 166.708 124.345 166.796C124.432 166.833 124.593 166.939 124.745 167.052C124.745 167.052 124.745 167.052 124.746 167.052C124.936 167.193 125.112 167.346 125.117 167.389C125.141 167.598 125.317 168.002 125.77 168.794C126.542 170.325 125.26 169.168 125.05 170.4C124.825 171.456 124.462 173.148 123.026 173.183C122.786 173.182 122.525 173.123 122.258 172.987C121.418 172.531 121.005 173.341 120.279 173.92C119.613 174.497 118.564 174.771 117.991 173.158C117.758 172.44 117.559 172.096 117.273 171.962C116.386 171.513 114.141 173.573 112.337 172.289C111.42 171.607 110.915 170.315 110.795 168.94C110.764 167.358 111.246 165.606 111.225 164.236C111.169 163.12 111.421 161.097 112.808 159.432C114.159 157.875 115.171 157.519 116.085 157.405C117.855 157.293 118.835 155.495 120.31 156.309C121.739 157.137 123.45 158.315 124.232 159.171C125.015 160.025 125.176 160.221 125.803 159.613C126.161 159.264 126.74 159.545 127.193 160.739C127.415 161.341 127.355 162.18 127.162 162.583C126.885 163.173 126.628 162.791 126.527 163.845C126.326 165.952 126.297 166.758 125.853 165.567C125.397 164.378 125.457 167.156 125.235 166.856C125.01 166.56 124.818 164.923 123.921 166.308C123.059 167.698 122.657 168.116 122.396 168.479C122.167 168.833 121.132 167.638 121.041 168.224C121.028 168.387 120.994 168.479 121.091 168.474C121.191 168.446 121.434 168.419 122.137 167.731C123.155 166.691 123.468 165.46 123.837 165.027C124.692 163.87 122.769 164.132 121.788 164.341Z" fill="var(--stroke-0, white)"/>
</g>
</g>
<defs>
<filter id="filter0_g_0_40" x="260.066" y="18.8938" width="58.3502" height="58.432" filterUnits="userSpaceOnUse" color-interpolation-filters="sRGB">
<feFlood flood-opacity="0" result="BackgroundImageFix"/>
<feBlend mode="normal" in="SourceGraphic" in2="BackgroundImageFix" result="shape"/>
<feTurbulence type="fractalNoise" baseFrequency="0.087458178400993347 0.087458178400993347" numOctaves="3" seed="7215" />
<feDisplacementMap in="shape" scale="7.6867470741271973" xChannelSelector="R" yChannelSelector="G" result="displacedImage" width="100%" height="100%" />
<feMerge result="effect1_texture_0_40">
<feMergeNode in="displacedImage"/>
</feMerge>
</filter>
<filter id="filter1_g_0_40" x="0" y="0" width="326.687" height="326.687" filterUnits="userSpaceOnUse" color-interpolation-filters="sRGB">
<feFlood flood-opacity="0" result="BackgroundImageFix"/>
<feBlend mode="normal" in="SourceGraphic" in2="BackgroundImageFix" result="shape"/>
<feTurbulence type="fractalNoise" baseFrequency="0.087458178400993347 0.087458178400993347" numOctaves="3" seed="7215" />
<feDisplacementMap in="shape" scale="7.6867470741271973" xChannelSelector="R" yChannelSelector="G" result="displacedImage" width="100%" height="100%" />
<feMerge result="effect1_texture_0_40">
<feMergeNode in="displacedImage"/>
</feMerge>
</filter>
<filter id="filter2_g_0_40" x="24.5999" y="24.5999" width="277.487" height="277.487" filterUnits="userSpaceOnUse" color-interpolation-filters="sRGB">
<feFlood flood-opacity="0" result="BackgroundImageFix"/>
<feBlend mode="normal" in="SourceGraphic" in2="BackgroundImageFix" result="shape"/>
<feTurbulence type="fractalNoise" baseFrequency="0.10296495258808136 0.10296495258808136" numOctaves="3" seed="7215" />
<feDisplacementMap in="shape" scale="6.5291047096252441" xChannelSelector="R" yChannelSelector="G" result="displacedImage" width="100%" height="100%" />
<feMerge result="effect1_texture_0_40">
<feMergeNode in="displacedImage"/>
</feMerge>
</filter>
<radialGradient id="paint0_radial_0_40" cx="0" cy="0" r="1" gradientUnits="userSpaceOnUse" gradientTransform="translate(163.343 163.343) rotate(90) scale(135.479)">
<stop stop-color="#95B663"/>
<stop offset="1" stop-color="#7FAF6A"/>
</radialGradient>
</defs>
</svg>
