<svg preserveAspectRatio="none" width="100%" height="100%" overflow="visible" style="display: block;" viewBox="0 0 60 59" fill="none" xmlns="http://www.w3.org/2000/svg">
<g id="colors">
<rect width="60" height="59" rx="29.5" fill="var(--fill-0, #81B069)"/>
<path id="colors_2" d="M26.65 38.5L20.5 32.35C20.3333 32.1833 20.2083 32 20.125 31.8C20.0417 31.6 20 31.3917 20 31.175C20 30.9583 20.0417 30.75 20.125 30.55C20.2083 30.35 20.3333 30.1667 20.5 30L26.25 24.275L23.6 21.625L25.15 20L35.15 30C35.3167 30.1667 35.4375 30.35 35.5125 30.55C35.5875 30.75 35.625 30.9583 35.625 31.175C35.625 31.3917 35.5875 31.6 35.5125 31.8C35.4375 32 35.3167 32.1833 35.15 32.35L29 38.5C28.8333 38.6667 28.65 38.7917 28.45 38.875C28.25 38.9583 28.0417 39 27.825 39C27.6083 39 27.4 38.9583 27.2 38.875C27 38.7917 26.8167 38.6667 26.65 38.5ZM27.825 25.85L22.475 31.2H33.175L27.825 25.85ZM37.8 39C37.2 39 36.6917 38.7875 36.275 38.3625C35.8583 37.9375 35.65 37.4167 35.65 36.8C35.65 36.35 35.7625 35.925 35.9875 35.525C36.2125 35.125 36.4667 34.7333 36.75 34.35L37.8 33L38.9 34.35C39.1667 34.7333 39.4167 35.125 39.65 35.525C39.8833 35.925 40 36.35 40 36.8C40 37.4167 39.7833 37.9375 39.35 38.3625C38.9167 38.7875 38.4 39 37.8 39Z" fill="var(--fill-0, #F2FFD1)"/>
</g>
</svg>
