<svg preserveAspectRatio="none" width="100%" height="100%" overflow="visible" style="display: block;" viewBox="0 0 59.9628 59" fill="none" xmlns="http://www.w3.org/2000/svg">
<g id="ink_eraser">
<rect width="59.9628" height="59" rx="29.5" fill="var(--fill-0, #90B165)" fill-opacity="0.4"/>
<path id="ink_eraser_2" d="M35.2128 35H39.9628V37H33.2128L35.2128 35ZM22.7128 37L20.5878 34.875C20.2044 34.4917 20.0086 34.0167 20.0003 33.45C19.9919 32.8833 20.1794 32.4 20.5628 32L31.5628 20.6C31.9461 20.2 32.4169 20 32.9753 20C33.5336 20 34.0044 20.1917 34.3878 20.575L39.3628 25.55C39.7461 25.9333 39.9378 26.4083 39.9378 26.975C39.9378 27.5417 39.7461 28.0167 39.3628 28.4L30.9628 37H22.7128ZM30.1128 35L37.9628 26.95L33.0128 22L21.9628 33.4L23.5628 35H30.1128Z" fill="var(--fill-0, #90B165)"/>
</g>
</svg>
