<svg preserveAspectRatio="none" width="100%" height="100%" overflow="visible" style="display: block;" viewBox="0 0 48.9897 48.9897" fill="none" xmlns="http://www.w3.org/2000/svg">
<svg x="5.83%" y="4.2%" width="88.34%" height="85.22%" viewBox="0 0 43.277 41.7491" preserveAspectRatio="none" overflow="visible">
<g id="Star" filter="url(#filter0_g)">
<path d="M18.3658 4.35597C19.7295 1.68388 23.5475 1.68388 24.9112 4.35597L28.1317 10.6665C28.6656 11.7127 29.6674 12.4405 30.8273 12.625L37.8242 13.7378C40.7869 14.209 41.9667 17.8402 39.8468 19.9628L34.8403 24.9758C34.0103 25.8068 33.6277 26.9845 33.8107 28.1446L34.9145 35.143C35.3819 38.1063 32.293 40.3505 29.6192 38.9902L23.3045 35.7778C22.2577 35.2453 21.0194 35.2453 19.9725 35.7778L13.6578 38.9902C10.984 40.3505 7.89512 38.1063 8.36252 35.143L9.46634 28.1446C9.64933 26.9845 9.26667 25.8068 8.43672 24.9758L3.43019 19.9628C1.31028 17.8402 2.49013 14.209 5.45282 13.7378L12.4497 12.625C13.6096 12.4405 14.6114 11.7127 15.1453 10.6665L18.3658 4.35597Z" fill="var(--fill-0, #EF9542)"/>
</g>
<defs>
<filter id="filter0_g" x="0" y="0" width="43.277" height="41.7491" filterUnits="userSpaceOnUse" color-interpolation-filters="sRGB">
<feFlood flood-opacity="0" result="BackgroundImageFix"/>
<feBlend mode="normal" in="SourceGraphic" in2="BackgroundImageFix" result="shape"/>
<feTurbulence type="fractalNoise" baseFrequency="0.052677314728498459 0.052677314728498459" numOctaves="3" seed="7215"/>
<feDisplacementMap in="shape" scale="4.7038059234619141" xChannelSelector="R" yChannelSelector="G" result="displacedImage" width="100%" height="100%"/>
<feMerge result="effect1_texture">
<feMergeNode in="displacedImage"/>
</feMerge>
</filter>
</defs>
</svg>
</svg>
